/* XPM */
/* The words LUCID EMACS, stacked, in the Lucid masthead font.  By jwz. */
static char *lucid_emacs[] = {
/* width height ncolors chars_per_pixel */
"   226    73      3           1        ",
/* colors */
"  c None	m None",
"- c white	m white",
"# c black	m black",
/* pixels */
"                                                                                                                                                                                                                                  ",
"                                                                                                                                                                                                                                  ",
"                                                                                                                                                                                                                                  ",
"                                                  ###########                      ###########                   ###########       ###############################       ###########  ####################################        ",
"                                                  #---------#                      #---------#                   #---------#     ##-------------------------------#      #---------#  #-----------------------------------#       ",
"                                                  #---------#                      #---------#                   #---------#    #----------------------------------#     #---------#  #------------------------------------#      ",
"                                                 #---------#                      #----------#                   #--------#    #------------------------------------#   #---------#  #--------------------------------------#     ",
"                                                 #---------#                      #---------#                   #---------#    #------------------------------------#   #---------#  #--------------------------------------#     ",
"                                                 #---------#                      #---------#                   #---------#   #-------------------------------------#   #---------#  #--------------------------------------#     ",
"                                                 #---------#                      #---------#                   #---------#   #-------------------------------------#   #---------#  #--------------------------------------#     ",
"                                                 #---------#                      #---------#                   #---------#  #--------------------------------------#   #---------#  #--------------------------------------#     ",
"                                                #---------#                      #----------#                   #--------#   #--------------------------------------#  #---------#  #---------------------------------------#     ",
"                                                #---------#                      #----------#                   #--------#  #---------------------------------------#  #---------#  #---------------------------------------#     ",
"                                                #---------#                      #---------#                   #---------#  #----------###################----------#  #---------#  #---------####################----------#     ",
"                                                #---------#                      #---------#                   #---------#  #----------#                 #----------#  #---------#  #---------#                  #----------#     ",
"                                                #---------#                      #---------#                   #---------#  #---------#                  #---------#   #---------#  #---------#                  #----------#     ",
"                                               #----------#                      #---------#                   #---------# #----------#                  ###########  #---------#  #---------#                   #---------#      ",
"                                               #---------#                      #----------#                   #--------#  #----------#                               #---------#  #---------#                   #---------#      ",
"                                               #---------#                      #----------#                   #--------#  #----------#                               #---------#  #---------#                   #---------#      ",
"                                               #---------#                      #---------#                   #---------#  #---------#                                #---------#  #---------#                  #----------#      ",
"                                               #---------#                      #---------#                   #---------#  #---------#                                #---------#  #---------#                  #----------#      ",
"                                               #---------#                      #---------#                   #---------#  #---------#                  ###########   #---------#  #---------#                  #----------#      ",
"                                              #---------#                      #----------#                  #---------#  #----------#                  #---------#  #---------#  #---------#                   #---------#       ",
"                                              #---------#                      #-----------#                 #---------#  #----------#                 #----------#  #---------#  #---------#                  #----------#       ",
"                                              #---------#####################  #-----------##################----------#  #----------###################----------#  #---------#  #---------####################----------#       ",
"                                              #-----------------------------#  #---------------------------------------#  #---------------------------------------#  #---------#  #---------------------------------------#       ",
"                                              #-----------------------------#  #--------------------------------------#   #--------------------------------------#   #---------#  #--------------------------------------#        ",
"                                             #-----------------------------#   #--------------------------------------#   #--------------------------------------#  #---------#  #---------------------------------------#        ",
"                                             #-----------------------------#   #-------------------------------------#    #-------------------------------------#   #---------#  #--------------------------------------#         ",
"                                             #-----------------------------#   #-------------------------------------#    #-------------------------------------#   #---------#  #--------------------------------------#         ",
"                                             #-----------------------------#   #------------------------------------#     #------------------------------------#    #---------#  #-------------------------------------#          ",
"                                             #-----------------------------#   #------------------------------------#     #------------------------------------#    #---------#  #-------------------------------------#          ",
"                                            #-----------------------------#     #---------------------------------##       #---------------------------------##    #---------#  #------------------------------------##           ",
"                                            #-----------------------------#      #-------------------------------#          #-------------------------------#      #---------#  #-----------------------------------#             ",
"                                            ###############################       ###############################            ###############################       ###########  ####################################              ",
"                                                                                                                                                                                                                                  ",
"                                                                                                                                                                                                                                  ",
"                                                                                                                                                                                                                                  ",
"            ####################################       ##############   ##############            ###############################            ###############################            ##############################            ",
"          ##-----------------------------------#     ##--------------# #--------------#         ##-------------------------------#         ##-------------------------------#         ##------------------------------#           ",
"         #-------------------------------------#    #-----------------#----------------#       #----------------------------------#       #----------------------------------#      ##---------------------------------#          ",
"        #-------------------------------------#    #------------------------------------#     #------------------------------------#     #------------------------------------#    #------------------------------------#         ",
"        #-------------------------------------#    #------------------------------------#     #------------------------------------#     #------------------------------------#    #------------------------------------#         ",
"       #--------------------------------------#   #-------------------------------------#    #-------------------------------------#    #-------------------------------------#   #-------------------------------------#         ",
"       #--------------------------------------#   #-------------------------------------#    #-------------------------------------#    #-------------------------------------#   #-------------------------------------#         ",
"      #---------------------------------------#  #--------------------------------------#   #--------------------------------------#   #--------------------------------------#   #-------------------------------------#         ",
"      #--------------------------------------#   #--------------------------------------#   #--------------------------------------#   #--------------------------------------#   #---------##################----------#         ",
"     #---------------------------------------#  #---------------------------------------#  #---------------------------------------#  #---------------------------------------#  #---------#                  ###########         ",
"     #-----------#############################  #----------####-----------####----------#  #----------###################----------#  #----------##################-----------#  #--------#                                       ",
"     #----------#                               #----------#  #-----------#  #----------#  #---------#                  #----------#  #---------#                 #-----------#  #--------###########################             ",
"     #----------#                               #---------#    #---------#   #----------#  #---------#                  #----------#  #---------#                  #---------#  #------------------------------------#            ",
"    #----------#####################           #----------#    #---------#   #---------#  #---------#                   #---------#  #---------#                   ###########  #-------------------------------------#           ",
"    #------------------------------#           #----------#    #---------#   #---------#  #---------#                   #---------#  #---------#                                #--------------------------------------#          ",
"    #------------------------------#           #----------#    #---------#   #---------#  #---------#                   #---------#  #---------#                                #--------------------------------------#          ",
"    #-----------------------------#            #---------#    #---------#    #---------#  #---------#                  #----------#  #--------#                                 #--------------------------------------#          ",
"    #-----------------------------#            #---------#    #---------#   #----------#  #---------####################----------#  #--------#                                 #--------------------------------------#          ",
"    #---------#####################           #----------#    #---------#   #---------#  #---------------------------------------#   #--------#                   ###########    #-------------------------------------#          ",
"   #----------#                               #----------#    #---------#   #---------#  #---------------------------------------#  #---------#                  #----------#    #-------------------------------------#          ",
"   #-----------#                              #---------#     ###########   #---------#  #---------------------------------------#  #----------#                 #----------#     ############################---------#          ",
"   #-----------#############################  #---------#                   #---------#  #---------------------------------------#  #----------##################-----------#                                #---------#          ",
"   #---------------------------------------#  #---------#                   #---------#  #---------------------------------------#  #---------------------------------------#  ###########                  #----------#          ",
"   #---------------------------------------#  #---------#                  #----------#  #---------------------------------------#  #--------------------------------------#   #----------##################----------#           ",
"   #--------------------------------------#  #----------#                  #---------#  #---------------------------------------#   #--------------------------------------#   #--------------------------------------#           ",
"   #--------------------------------------#  #---------#                   #---------#  #---------------------------------------#   #-------------------------------------#    #-------------------------------------#            ",
"   #--------------------------------------#  #---------#                   #---------#  #---------#####################---------#   #-------------------------------------#    #-------------------------------------#            ",
"   #--------------------------------------#  #---------#                   #---------#  #---------#                   #---------#   #------------------------------------#     #------------------------------------#             ",
"   #--------------------------------------#  #---------#                   #---------#  #---------#                   #---------#   #------------------------------------#     #------------------------------------#             ",
"    #------------------------------------#  #---------#                   #---------#  #---------#                   #---------#     #---------------------------------##       #---------------------------------##              ",
"     #-----------------------------------#  #---------#                   #---------#  #---------#                   #---------#      #-------------------------------#          #------------------------------##                ",
"      ####################################  ###########                   ###########  ###########                   ###########       ###############################            ##############################                  ",
"                                                                                                                                                                                                                                  ",
"                                                                                                                                                                                                                                  ",
"                                                                                                                                                                                                                                  "
};
