#define lucid_width 406
#define lucid_height 36
static unsigned char lucid_bits[] = {
 0x00,0x00,0x00,0x00,0x00,0x00,0x00,0x00,0x00,0x00,0x00,0x00,0x00,0x00,0x00,
 0x00,0x00,0x00,0x00,0x00,0x00,0x00,0x00,0x00,0x00,0x00,0x00,0x00,0x00,0x00,
 0x00,0x00,0x00,0x00,0x00,0x00,0x00,0x00,0x00,0x00,0x00,0x00,0x00,0x00,0x00,
 0x00,0x00,0x00,0x00,0x00,0x00,0x00,0x00,0x00,0x00,0x00,0x00,0x00,0x00,0x00,
 0x00,0x00,0x00,0x00,0x00,0x00,0x00,0x00,0x00,0x00,0x00,0x00,0x00,0x00,0x00,
 0x00,0x00,0x00,0x00,0x00,0x00,0x00,0x00,0x00,0x00,0x00,0x00,0x00,0x00,0x00,
 0x00,0x00,0x00,0x00,0x00,0x00,0x00,0x00,0x00,0x00,0x00,0x00,0x00,0xfc,0x1f,
 0x00,0x00,0xf8,0x3f,0x00,0x00,0xfe,0x0f,0xf8,0xff,0xff,0xff,0x03,0xfe,0xcf,
 0xff,0xff,0xff,0xff,0x03,0x00,0xc0,0xff,0xff,0xff,0xff,0x03,0xfe,0x7f,0xfc,
 0xff,0x00,0xf0,0xff,0xff,0xff,0x07,0x80,0xff,0xff,0xff,0x3f,0x00,0xfc,0xff,
 0xff,0xff,0x00,0x00,0x04,0x10,0x00,0x00,0x08,0x20,0x00,0x00,0x02,0x08,0x06,
 0x00,0x00,0x00,0x04,0x02,0x48,0x00,0x00,0x00,0x00,0x04,0x00,0x30,0x00,0x00,
 0x00,0x00,0x82,0x01,0x80,0x02,0x00,0x01,0x0c,0x00,0x00,0x00,0x08,0x60,0x00,
 0x00,0x00,0x40,0x00,0x03,0x00,0x00,0x00,0x01,0x00,0x04,0x10,0x00,0x00,0x08,
 0x20,0x00,0x00,0x02,0x08,0x01,0x00,0x00,0x00,0x08,0x02,0x48,0x00,0x00,0x00,
 0x00,0x08,0x00,0x08,0x00,0x00,0x00,0x00,0x42,0x00,0x00,0x01,0x00,0x02,0x02,
 0x00,0x00,0x00,0x10,0x10,0x00,0x00,0x00,0x80,0xc0,0x00,0x00,0x00,0x00,0x02,
 0x00,0x02,0x08,0x00,0x00,0x04,0x20,0x00,0x00,0x02,0x84,0x00,0x00,0x00,0x00,
 0x10,0x01,0x24,0x00,0x00,0x00,0x00,0x10,0x00,0x04,0x00,0x00,0x00,0x00,0x21,
 0x00,0x00,0x00,0x00,0x04,0x01,0x00,0x00,0x00,0x20,0x08,0x00,0x00,0x00,0x00,
 0x21,0x00,0x00,0x00,0x00,0x04,0x00,0x02,0x08,0x00,0x00,0x04,0x10,0x00,0x00,
 0x01,0x84,0x00,0x00,0x00,0x00,0x10,0x01,0x24,0x00,0x00,0x00,0x00,0x10,0x00,
 0x04,0x00,0x00,0x00,0x00,0x21,0x00,0x00,0x00,0x00,0x04,0x01,0x00,0x00,0x00,
 0x20,0x08,0x00,0x00,0x00,0x00,0x21,0x00,0x00,0x00,0x00,0x04,0x00,0x02,0x08,
 0x00,0x00,0x04,0x10,0x00,0x00,0x01,0x44,0x00,0x00,0x00,0x00,0x10,0x01,0x24,
 0x00,0x00,0x00,0x00,0x10,0x00,0x02,0x00,0x00,0x00,0x00,0x11,0x00,0x00,0x00,
 0x00,0x84,0x00,0x00,0x00,0x00,0x20,0x04,0x00,0x00,0x00,0x00,0x11,0x00,0x00,
 0x00,0x00,0x04,0x00,0x02,0x08,0x00,0x00,0x04,0x10,0x00,0x00,0x01,0x44,0x00,
 0x00,0x00,0x00,0x10,0x01,0x24,0x00,0x00,0x00,0x00,0x10,0x00,0x02,0x00,0x00,
 0x00,0x00,0x11,0x00,0x00,0x00,0x00,0x84,0x00,0x00,0x00,0x00,0x20,0x04,0x00,
 0x00,0x00,0x00,0x11,0x00,0x00,0x00,0x00,0x04,0x00,0x02,0x08,0x00,0x00,0x04,
 0x10,0x00,0x00,0x01,0x24,0x00,0x00,0x00,0x00,0x10,0x01,0x24,0x00,0x00,0x00,
 0x00,0x10,0x00,0x01,0x00,0x00,0x00,0x00,0x09,0x00,0x00,0x00,0x00,0x44,0x00,
 0x00,0x00,0x00,0x20,0x02,0x00,0x00,0x00,0x00,0x11,0x00,0x00,0x00,0x00,0x04,
 0x00,0x01,0x04,0x00,0x00,0x02,0x10,0x00,0x00,0x01,0x22,0x00,0x00,0x00,0x00,
 0x90,0x00,0x12,0x00,0x00,0x00,0x00,0x10,0x00,0x01,0x00,0x00,0x00,0x80,0x08,
 0x00,0x00,0x00,0x00,0x44,0x00,0x00,0x00,0x00,0x20,0x02,0x00,0x00,0x00,0x00,
 0x11,0xc0,0xff,0xff,0x00,0x04,0x00,0x01,0x04,0x00,0x00,0x02,0x10,0x00,0x00,
 0x01,0x12,0x00,0x00,0x00,0x00,0x90,0x00,0x12,0x00,0x00,0x00,0x00,0x10,0x80,
 0x00,0x00,0x00,0x00,0x80,0x04,0x00,0x00,0x00,0x00,0x24,0x00,0x00,0x00,0x00,
 0x20,0x01,0x00,0x00,0x00,0x00,0x09,0x20,0x00,0x00,0xff,0x07,0x00,0x01,0x04,
 0x00,0x00,0x02,0x08,0x00,0x80,0x00,0x12,0x80,0xff,0xff,0x03,0x90,0x00,0x12,
 0xc0,0xff,0xff,0x03,0x10,0x80,0x00,0xf8,0xff,0xff,0xff,0x04,0xe0,0x01,0xf0,
 0x00,0x24,0x00,0xff,0xff,0x07,0x20,0x01,0xf8,0xff,0x1f,0x00,0x09,0x10,0x00,
 0x00,0x00,0x00,0x00,0x01,0x04,0x00,0x00,0x02,0x08,0x00,0x80,0x00,0x12,0x80,
 0x00,0x00,0x02,0x90,0x00,0x12,0x40,0x00,0x00,0x02,0x10,0x80,0x00,0x04,0x00,
 0x00,0x00,0x04,0x20,0x01,0x90,0x00,0x24,0x80,0x00,0x00,0x04,0x20,0x01,0x04,
 0x00,0x10,0x00,0x09,0xf0,0xff,0xff,0x7f,0x00,0x00,0x01,0x04,0x00,0x00,0x02,
 0x08,0x00,0x80,0x00,0x12,0x40,0x00,0x00,0x02,0x88,0x00,0x12,0x40,0x00,0x00,
 0x02,0x10,0x80,0x00,0x04,0x00,0x00,0x00,0x04,0x10,0x02,0x88,0x00,0x24,0x80,
 0x00,0x00,0x04,0x20,0x01,0x04,0x00,0x20,0x80,0x04,0x00,0x00,0x00,0x80,0x00,
 0x80,0x00,0x04,0x00,0x00,0x02,0x08,0x00,0x80,0x00,0x0a,0x40,0x00,0x00,0xfe,
 0x4f,0x00,0x09,0x20,0x00,0x00,0x02,0x08,0x40,0x00,0xfe,0xff,0x3f,0x00,0x02,
 0x10,0x02,0x88,0x00,0x12,0x40,0x00,0x00,0x04,0x90,0x00,0x02,0x00,0xe0,0xff,
 0x04,0x00,0x00,0x00,0x00,0x01,0x80,0x00,0x02,0x00,0x00,0x01,0x08,0x00,0x80,
 0x00,0x09,0x40,0x00,0x00,0x00,0x40,0x00,0x09,0x20,0x00,0x00,0x02,0x08,0x40,
 0x00,0x00,0x00,0x20,0x00,0x02,0x10,0x02,0x88,0x00,0x12,0x40,0x00,0x00,0x04,
 0x90,0x00,0x02,0x00,0x00,0x00,0x04,0x00,0x00,0x00,0x00,0x02,0x80,0x00,0x02,
 0x00,0x00,0x01,0x08,0x00,0x80,0x00,0x09,0x40,0x00,0x00,0x00,0x40,0x00,0x09,
 0x20,0x00,0x00,0x02,0x08,0x40,0x00,0x00,0x00,0x20,0x00,0x02,0x10,0x02,0x88,
 0x00,0x12,0x40,0x00,0x00,0x04,0x90,0x00,0x02,0x00,0x00,0x00,0x04,0x00,0x00,
 0x00,0x00,0x02,0x80,0x00,0x02,0x00,0x00,0x01,0x04,0x00,0x40,0x00,0x09,0x20,
 0x00,0x00,0x00,0x40,0x00,0x09,0x20,0x00,0x00,0x01,0x08,0x40,0x00,0x00,0x00,
 0x10,0x00,0x02,0x08,0x01,0x84,0x00,0x12,0x40,0x00,0x00,0x02,0x90,0x00,0x01,
 0x00,0x00,0x00,0x04,0x00,0x00,0x00,0x00,0x02,0x80,0x00,0x02,0x00,0x00,0x01,
 0x04,0x00,0x40,0x00,0x09,0x20,0x00,0x00,0x00,0x40,0x00,0x09,0x20,0x00,0x00,
 0x01,0x08,0x40,0x00,0x00,0x00,0x10,0x00,0x02,0x08,0x01,0x44,0x00,0x12,0xc0,
 0xff,0xff,0x03,0x90,0x00,0x01,0x00,0x00,0x00,0x04,0x00,0x00,0x00,0x00,0x02,
 0x80,0x00,0x02,0x00,0x00,0x01,0x04,0x00,0x40,0x00,0x09,0x20,0x00,0x00,0xff,
 0x47,0x00,0x09,0x20,0x00,0x00,0x01,0x08,0x40,0x00,0xff,0xff,0x1f,0x00,0x01,
 0x08,0x01,0x44,0x00,0x09,0x00,0x00,0x00,0x00,0x88,0x00,0x01,0x00,0xf0,0x7f,
 0x08,0x00,0x00,0x00,0x00,0x02,0x40,0x00,0x01,0x00,0x80,0x00,0x04,0x00,0x20,
 0x80,0x04,0x20,0x00,0x00,0x01,0x24,0x80,0x04,0x10,0x00,0x00,0x01,0x04,0x20,
 0x00,0x01,0x00,0x00,0x00,0x01,0x08,0x01,0x44,0x00,0x09,0x00,0x00,0x00,0x00,
 0x48,0x00,0x01,0x00,0x08,0x40,0x08,0x00,0x00,0x00,0x00,0x02,0x40,0x00,0x01,
 0x00,0x80,0x00,0x08,0x00,0x20,0x80,0x04,0x20,0x00,0x80,0x00,0x24,0x80,0x04,
 0x10,0x00,0x80,0x00,0x04,0x20,0x00,0x02,0x00,0x00,0x00,0x01,0x04,0xff,0x47,
 0x00,0x09,0x00,0x00,0x00,0x00,0x48,0x00,0x02,0x00,0x08,0x40,0xf0,0xff,0xff,
 0xff,0x00,0x02,0x40,0x00,0xff,0xff,0x9f,0x00,0xf8,0xff,0x1f,0x80,0x04,0xe0,
 0xff,0xff,0x00,0x24,0x80,0x04,0xf0,0xff,0xff,0x00,0x04,0x20,0x00,0xfe,0xff,
 0xff,0x3f,0x01,0x04,0x00,0x40,0x00,0x09,0x00,0x00,0x00,0x00,0x48,0x00,0xfe,
 0xff,0x07,0x40,0x00,0x00,0x00,0x80,0x00,0x02,0x40,0x00,0x00,0x00,0x90,0x00,
 0x00,0x00,0x00,0x80,0x04,0x00,0x00,0x00,0x00,0x24,0x80,0x04,0x00,0x00,0x00,
 0x00,0x04,0x20,0x00,0x00,0x00,0x00,0x20,0x01,0x04,0x00,0x40,0x00,0x09,0x00,
 0x00,0x00,0x00,0x48,0x00,0x00,0x00,0x00,0x40,0xfe,0x0f,0x00,0x40,0x00,0x02,
 0x40,0x00,0x00,0x00,0x90,0x00,0x00,0x00,0x00,0x40,0x04,0x00,0x00,0x00,0x00,
 0x22,0x80,0x04,0x00,0x00,0x00,0x00,0x02,0x20,0x00,0x00,0x00,0x00,0x20,0x01,
 0x04,0x00,0x20,0x00,0x09,0x00,0x00,0x00,0x00,0x48,0x00,0x00,0x00,0x00,0x20,
 0x02,0xf0,0xff,0x3f,0x00,0x01,0x20,0x00,0x00,0x00,0x88,0x00,0x00,0x00,0x00,
 0x40,0x04,0x00,0x00,0x00,0x00,0x12,0x40,0x02,0x00,0x00,0x00,0x00,0x02,0x20,
 0x00,0x00,0x00,0x00,0x90,0x00,0x04,0x00,0x20,0x80,0x04,0x00,0x00,0x00,0x00,
 0x44,0x00,0x00,0x00,0x00,0x20,0x02,0x00,0x00,0x00,0x00,0x01,0x20,0x00,0x00,
 0x00,0x88,0x00,0x00,0x00,0x00,0x20,0x04,0x00,0x00,0x00,0x00,0x11,0x40,0x02,
 0x00,0x00,0x00,0x00,0x01,0x20,0x00,0x00,0x00,0x00,0x90,0x00,0x02,0x00,0x20,
 0x80,0x04,0x00,0x00,0x00,0x00,0x44,0x00,0x00,0x00,0x00,0x10,0x02,0x00,0x00,
 0x00,0x80,0x00,0x20,0x00,0x00,0x00,0x88,0x00,0x00,0x00,0x00,0x20,0x04,0x00,
 0x00,0x00,0x00,0x11,0x40,0x02,0x00,0x00,0x00,0x00,0x01,0x20,0x00,0x00,0x00,
 0x00,0x90,0x00,0x02,0x00,0x20,0x80,0x04,0xf0,0xff,0xff,0x01,0x44,0x00,0x00,
 0x00,0x00,0x10,0x02,0x00,0x00,0x00,0x80,0x00,0x20,0x00,0x00,0x00,0x88,0x00,
 0x00,0x00,0x00,0x10,0x04,0x00,0x00,0x00,0x80,0x10,0x40,0x02,0x00,0x00,0x00,
 0x80,0x00,0x20,0x00,0x00,0x00,0x00,0x90,0x00,0x02,0x00,0x20,0x80,0x04,0x10,
 0x00,0x00,0x01,0x44,0x00,0x00,0x00,0x00,0x08,0x02,0x00,0x00,0x00,0x40,0x00,
 0x20,0x00,0x00,0x00,0x88,0x00,0x00,0x00,0x00,0x10,0x04,0x00,0x00,0x00,0x80,
 0x10,0x40,0x02,0x00,0x00,0x00,0x80,0x00,0x20,0x00,0x00,0x00,0x00,0x90,0x00,
 0x02,0x00,0x20,0x80,0x04,0x10,0x00,0x00,0x01,0x44,0x00,0x00,0x00,0x00,0x08,
 0x02,0x00,0x00,0x00,0x40,0x00,0x10,0x00,0x00,0x00,0x04,0x01,0x00,0x00,0x00,
 0x0c,0x08,0x00,0x00,0x00,0x60,0x08,0x20,0x01,0x00,0x00,0x00,0x60,0x00,0x40,
 0x00,0x00,0x00,0x00,0x48,0x00,0x01,0x00,0x10,0x40,0x02,0x08,0x00,0x80,0x00,
 0x82,0x00,0x00,0x00,0x00,0x06,0x04,0x00,0x00,0x00,0x30,0x00,0x10,0x00,0x00,
 0x00,0x04,0x02,0x00,0x00,0x00,0x02,0x10,0x00,0x00,0x00,0x10,0x08,0x20,0x01,
 0x00,0x00,0x00,0x10,0x00,0x80,0x00,0x00,0x00,0x00,0x48,0x00,0x01,0x00,0x10,
 0x40,0x02,0x08,0x00,0x80,0x00,0x02,0x01,0x00,0x00,0x00,0x01,0x08,0x00,0x00,
 0x00,0x0c,0x00,0xf0,0xff,0xff,0xff,0x07,0xfc,0xff,0xff,0xff,0x01,0xe0,0xff,
 0xff,0xff,0x0f,0xf8,0x3f,0xff,0xff,0xff,0xff,0x0f,0x00,0x00,0xff,0xff,0xff,
 0xff,0xcf,0xff,0x01,0x00,0xf0,0x7f,0xfe,0x0f,0x00,0x80,0xff,0x03,0xfe,0xff,
 0xff,0xff,0x00,0xf0,0xff,0xff,0xff,0x03,0x00,0x00,0x00,0x00,0x00,0x00,0x00,
 0x00,0x00,0x00,0x00,0x00,0x00,0x00,0x00,0x00,0x00,0x00,0x00,0x00,0x00,0x00,
 0x00,0x00,0x00,0x00,0x00,0x00,0x00,0x00,0x00,0x00,0x00,0x00,0x00,0x00,0x00,
 0x00,0x00,0x00,0x00,0x00,0x00,0x00,0x00,0x00,0x00,0x00,0x00,0x00,0x00,0x00,
 0x00,0x00,0x00,0x00,0x00,0x00,0x00,0x00,0x00,0x00,0x00,0x00,0x00,0x00,0x00,
 0x00,0x00,0x00,0x00,0x00,0x00,0x00,0x00,0x00,0x00,0x00,0x00,0x00,0x00,0x00,
 0x00,0x00,0x00,0x00,0x00,0x00,0x00,0x00,0x00,0x00,0x00,0x00,0x00,0x00,0x00,
 0x00,0x00,0x00,0x00,0x00,0x00};
