/* XPM */
/* The words LUCID EMACS, side by side, in the Lucid masthead font.  By jwz. */
static char *lucid_emacs[] = {
/* width height ncolors chars_per_pixel */
"   406    36      3           1",
/* colors */
"  c None	m None",
"# c black	m black",
"- c white	m white",
/* pixels */
"                                                                                                                                                                                                                                                                                                                                                                                                                      ",
"                                                                                                                                                                                                                                                                                                                                                                                                                      ",
"          ###########                      ###########                   ###########       ###############################       ###########  ####################################                    ####################################       ##############   ##############            ###############################            ###############################            ##############################      ",
"          #---------#                      #---------#                   #---------#     ##-------------------------------#      #---------#  #-----------------------------------#                 ##-----------------------------------#     ##--------------# #--------------#         ##-------------------------------#         ##-------------------------------#         ##------------------------------#     ",
"          #---------#                      #---------#                   #---------#    #----------------------------------#     #---------#  #------------------------------------#               #-------------------------------------#    #-----------------#----------------#       #----------------------------------#       #----------------------------------#      ##---------------------------------#    ",
"         #---------#                      #----------#                   #--------#    #------------------------------------#   #---------#  #--------------------------------------#             #-------------------------------------#    #------------------------------------#     #------------------------------------#     #------------------------------------#    #------------------------------------#   ",
"         #---------#                      #---------#                   #---------#    #------------------------------------#   #---------#  #--------------------------------------#             #-------------------------------------#    #------------------------------------#     #------------------------------------#     #------------------------------------#    #------------------------------------#   ",
"         #---------#                      #---------#                   #---------#   #-------------------------------------#   #---------#  #--------------------------------------#            #--------------------------------------#   #-------------------------------------#    #-------------------------------------#    #-------------------------------------#   #-------------------------------------#   ",
"         #---------#                      #---------#                   #---------#   #-------------------------------------#   #---------#  #--------------------------------------#            #--------------------------------------#   #-------------------------------------#    #-------------------------------------#    #-------------------------------------#   #-------------------------------------#   ",
"         #---------#                      #---------#                   #---------#  #--------------------------------------#   #---------#  #--------------------------------------#           #---------------------------------------#  #--------------------------------------#   #--------------------------------------#   #--------------------------------------#   #-------------------------------------#   ",
"        #---------#                      #----------#                   #--------#   #--------------------------------------#  #---------#  #---------------------------------------#           #--------------------------------------#   #--------------------------------------#   #--------------------------------------#   #--------------------------------------#   #---------##################----------#   ",
"        #---------#                      #----------#                   #--------#  #---------------------------------------#  #---------#  #---------------------------------------#          #---------------------------------------#  #---------------------------------------#  #---------------------------------------#  #---------------------------------------#  #---------#                  ###########   ",
"        #---------#                      #---------#                   #---------#  #----------###################----------#  #---------#  #---------####################----------#          #-----------#############################  #----------####-----------####----------#  #----------###################----------#  #----------##################-----------#  #--------#                                 ",
"        #---------#                      #---------#                   #---------#  #----------#                 #----------#  #---------#  #---------#                  #----------#          #----------#                               #----------#  #-----------#  #----------#  #---------#                  #----------#  #---------#                 #-----------#  #--------###########################       ",
"        #---------#                      #---------#                   #---------#  #---------#                  #---------#   #---------#  #---------#                  #----------#          #----------#                               #---------#    #---------#   #----------#  #---------#                  #----------#  #---------#                  #---------#  #------------------------------------#      ",
"       #----------#                      #---------#                   #---------# #----------#                  ###########  #---------#  #---------#                   #---------#          #----------#####################           #----------#    #---------#   #---------#  #---------#                   #---------#  #---------#                   ###########  #-------------------------------------#     ",
"       #---------#                      #----------#                   #--------#  #----------#                               #---------#  #---------#                   #---------#          #------------------------------#           #----------#    #---------#   #---------#  #---------#                   #---------#  #---------#                                #--------------------------------------#    ",
"       #---------#                      #----------#                   #--------#  #----------#                               #---------#  #---------#                   #---------#          #------------------------------#           #----------#    #---------#   #---------#  #---------#                   #---------#  #---------#                                #--------------------------------------#    ",
"       #---------#                      #---------#                   #---------#  #---------#                                #---------#  #---------#                  #----------#          #-----------------------------#            #---------#    #---------#    #---------#  #---------#                  #----------#  #--------#                                 #--------------------------------------#    ",
"       #---------#                      #---------#                   #---------#  #---------#                                #---------#  #---------#                  #----------#          #-----------------------------#            #---------#    #---------#   #----------#  #---------####################----------#  #--------#                                 #--------------------------------------#    ",
"       #---------#                      #---------#                   #---------#  #---------#                  ###########   #---------#  #---------#                  #----------#          #---------#####################           #----------#    #---------#   #---------#  #---------------------------------------#   #--------#                   ###########    #-------------------------------------#    ",
"      #---------#                      #----------#                  #---------#  #----------#                  #---------#  #---------#  #---------#                   #---------#          #----------#                               #----------#    #---------#   #---------#  #---------------------------------------#  #---------#                  #----------#    #-------------------------------------#    ",
"      #---------#                      #-----------#                 #---------#  #----------#                 #----------#  #---------#  #---------#                  #----------#          #-----------#                              #---------#     ###########   #---------#  #---------------------------------------#  #----------#                 #----------#     ############################---------#    ",
"      #---------#####################  #-----------##################----------#  #----------###################----------#  #---------#  #---------####################----------#          #-----------#############################  #---------#                   #---------#  #---------------------------------------#  #----------##################-----------#                                #---------#    ",
"      #-----------------------------#  #---------------------------------------#  #---------------------------------------#  #---------#  #---------------------------------------#          #---------------------------------------#  #---------#                   #---------#  #---------------------------------------#  #---------------------------------------#  ###########                  #----------#    ",
"      #-----------------------------#  #--------------------------------------#   #--------------------------------------#   #---------#  #--------------------------------------#           #---------------------------------------#  #---------#                  #----------#  #---------------------------------------#  #--------------------------------------#   #----------##################----------#     ",
"     #-----------------------------#   #--------------------------------------#   #--------------------------------------#  #---------#  #---------------------------------------#           #--------------------------------------#  #----------#                  #---------#  #---------------------------------------#   #--------------------------------------#   #--------------------------------------#     ",
"     #-----------------------------#   #-------------------------------------#    #-------------------------------------#   #---------#  #--------------------------------------#            #--------------------------------------#  #---------#                   #---------#  #---------------------------------------#   #-------------------------------------#    #-------------------------------------#      ",
"     #-----------------------------#   #-------------------------------------#    #-------------------------------------#   #---------#  #--------------------------------------#            #--------------------------------------#  #---------#                   #---------#  #---------#####################---------#   #-------------------------------------#    #-------------------------------------#      ",
"     #-----------------------------#   #------------------------------------#     #------------------------------------#    #---------#  #-------------------------------------#             #--------------------------------------#  #---------#                   #---------#  #---------#                   #---------#   #------------------------------------#     #------------------------------------#       ",
"     #-----------------------------#   #------------------------------------#     #------------------------------------#    #---------#  #-------------------------------------#             #--------------------------------------#  #---------#                   #---------#  #---------#                   #---------#   #------------------------------------#     #------------------------------------#       ",
"    #-----------------------------#     #---------------------------------##       #---------------------------------##    #---------#  #------------------------------------##               #------------------------------------#  #---------#                   #---------#  #---------#                   #---------#     #---------------------------------##       #---------------------------------##        ",
"    #-----------------------------#      #-------------------------------#          #-------------------------------#      #---------#  #-----------------------------------#                  #-----------------------------------#  #---------#                   #---------#  #---------#                   #---------#      #-------------------------------#          #------------------------------##          ",
"    ###############################       ###############################            ###############################       ###########  ####################################                    ####################################  ###########                   ###########  ###########                   ###########       ###############################            ##############################            ",
"                                                                                                                                                                                                                                                                                                                                                                                                                      ",
"                                                                                                                                                                                                                                                                                                                                                                                                                      "
};
