#define lucid_width 185
#define lucid_height 35
static unsigned char lucid_bits[] = {
 0x00,0x00,0x00,0x00,0x00,0x00,0x00,0x00,0x00,0x00,0x00,0x00,0x00,0x00,0x00,
 0x00,0x00,0x00,0x00,0x00,0x00,0x00,0x00,0x00,0x00,0x00,0x00,0x00,0x00,0x00,
 0x00,0x00,0x00,0x00,0x00,0x00,0x00,0x00,0x00,0x00,0x00,0x00,0x00,0x00,0x00,
 0x00,0x00,0x00,0x00,0xfc,0x1f,0x00,0x00,0xf8,0x3f,0x00,0x00,0xfe,0x0f,0xf8,
 0xff,0xff,0xff,0x03,0xfe,0xcf,0xff,0xff,0xff,0xff,0x03,0x00,0x00,0x04,0x10,
 0x00,0x00,0x08,0x20,0x00,0x00,0x02,0x08,0x06,0x00,0x00,0x00,0x04,0x02,0x48,
 0x00,0x00,0x00,0x00,0x04,0x00,0x00,0x04,0x10,0x00,0x00,0x08,0x20,0x00,0x00,
 0x02,0x08,0x01,0x00,0x00,0x00,0x08,0x02,0x48,0x00,0x00,0x00,0x00,0x08,0x00,
 0x00,0x02,0x08,0x00,0x00,0x04,0x10,0x00,0x00,0x01,0x84,0x00,0x00,0x00,0x00,
 0x10,0x01,0x24,0x00,0x00,0x00,0x00,0x10,0x00,0x00,0x02,0x08,0x00,0x00,0x04,
 0x10,0x00,0x00,0x01,0x84,0x00,0x00,0x00,0x00,0x10,0x01,0x24,0x00,0x00,0x00,
 0x00,0x10,0x00,0x00,0x02,0x08,0x00,0x00,0x04,0x10,0x00,0x00,0x01,0x44,0x00,
 0x00,0x00,0x00,0x10,0x01,0x24,0x00,0x00,0x00,0x00,0x10,0x00,0x00,0x02,0x08,
 0x00,0x00,0x04,0x10,0x00,0x00,0x01,0x44,0x00,0x00,0x00,0x00,0x10,0x01,0x24,
 0x00,0x00,0x00,0x00,0x10,0x00,0x00,0x02,0x08,0x00,0x00,0x04,0x08,0x00,0x80,
 0x00,0x24,0x00,0x00,0x00,0x00,0x10,0x01,0x24,0x00,0x00,0x00,0x00,0x10,0x00,
 0x00,0x01,0x04,0x00,0x00,0x02,0x08,0x00,0x80,0x00,0x22,0x00,0x00,0x00,0x00,
 0x90,0x00,0x12,0x00,0x00,0x00,0x00,0x10,0x00,0x00,0x01,0x04,0x00,0x00,0x02,
 0x08,0x00,0x80,0x00,0x12,0x00,0x00,0x00,0x00,0x90,0x00,0x12,0x00,0x00,0x00,
 0x00,0x10,0x00,0x00,0x01,0x04,0x00,0x00,0x02,0x08,0x00,0x80,0x00,0x12,0x80,
 0xff,0xff,0x03,0x90,0x00,0x12,0xc0,0xff,0xff,0x03,0x10,0x00,0x00,0x01,0x04,
 0x00,0x00,0x02,0x04,0x00,0x40,0x00,0x12,0x40,0x00,0x00,0x02,0x90,0x00,0x12,
 0x40,0x00,0x00,0x04,0x10,0x00,0x00,0x01,0x04,0x00,0x00,0x02,0x04,0x00,0x40,
 0x00,0x12,0x20,0x00,0x00,0xfe,0x9f,0x00,0x12,0x40,0x00,0x00,0x04,0x10,0x00,
 0x80,0x00,0x02,0x00,0x00,0x01,0x04,0x00,0x40,0x00,0x09,0x20,0x00,0x00,0x00,
 0x40,0x00,0x09,0x20,0x00,0x00,0x04,0x08,0x00,0x80,0x00,0x02,0x00,0x00,0x01,
 0x04,0x00,0x40,0x00,0x09,0x20,0x00,0x00,0x00,0x40,0x00,0x09,0x20,0x00,0x00,
 0x04,0x08,0x00,0x80,0x00,0x02,0x00,0x00,0x01,0x02,0x00,0x20,0x00,0x09,0x10,
 0x00,0x00,0x00,0x40,0x00,0x09,0x20,0x00,0x00,0x02,0x08,0x00,0x80,0x00,0x02,
 0x00,0x00,0x01,0x02,0x00,0x20,0x00,0x09,0x10,0x00,0x00,0x00,0x40,0x00,0x09,
 0x20,0x00,0x00,0x02,0x08,0x00,0x80,0x00,0x02,0x00,0x00,0x01,0x02,0x00,0x20,
 0x00,0x09,0x10,0x00,0x00,0xff,0x4f,0x00,0x09,0x20,0x00,0x00,0x02,0x08,0x00,
 0x40,0x00,0x01,0x00,0x80,0x00,0x02,0x00,0x20,0x80,0x04,0x10,0x00,0x00,0x01,
 0x28,0x80,0x04,0x10,0x00,0x00,0x01,0x04,0x00,0x40,0x00,0x01,0x00,0x80,0x00,
 0x04,0x00,0x10,0x80,0x04,0x20,0x00,0x80,0x00,0x24,0x80,0x04,0x10,0x00,0x00,
 0x01,0x04,0x00,0x40,0x00,0xff,0xff,0x9f,0x00,0xfc,0xff,0x1f,0x80,0x04,0xe0,
 0xff,0xff,0x00,0x24,0x80,0x04,0xf0,0xff,0xff,0x00,0x04,0x00,0x40,0x00,0x00,
 0x00,0x90,0x00,0x00,0x00,0x00,0x80,0x04,0x00,0x00,0x00,0x00,0x24,0x80,0x04,
 0x00,0x00,0x00,0x00,0x04,0x00,0x40,0x00,0x00,0x00,0x90,0x00,0x00,0x00,0x00,
 0x40,0x04,0x00,0x00,0x00,0x00,0x22,0x80,0x04,0x00,0x00,0x00,0x00,0x02,0x00,
 0x20,0x00,0x00,0x00,0x88,0x00,0x00,0x00,0x00,0x40,0x04,0x00,0x00,0x00,0x00,
 0x12,0x40,0x02,0x00,0x00,0x00,0x00,0x02,0x00,0x20,0x00,0x00,0x00,0x88,0x00,
 0x00,0x00,0x00,0x20,0x04,0x00,0x00,0x00,0x00,0x11,0x40,0x02,0x00,0x00,0x00,
 0x00,0x01,0x00,0x20,0x00,0x00,0x00,0x88,0x00,0x00,0x00,0x00,0x20,0x04,0x00,
 0x00,0x00,0x00,0x11,0x40,0x02,0x00,0x00,0x00,0x00,0x01,0x00,0x20,0x00,0x00,
 0x00,0x88,0x00,0x00,0x00,0x00,0x10,0x04,0x00,0x00,0x00,0x80,0x10,0x40,0x02,
 0x00,0x00,0x00,0x80,0x00,0x00,0x20,0x00,0x00,0x00,0x88,0x00,0x00,0x00,0x00,
 0x10,0x04,0x00,0x00,0x00,0x80,0x10,0x40,0x02,0x00,0x00,0x00,0x80,0x00,0x00,
 0x10,0x00,0x00,0x00,0x04,0x01,0x00,0x00,0x00,0x0c,0x08,0x00,0x00,0x00,0x60,
 0x08,0x20,0x01,0x00,0x00,0x00,0x60,0x00,0x00,0x10,0x00,0x00,0x00,0x04,0x02,
 0x00,0x00,0x00,0x02,0x10,0x00,0x00,0x00,0x10,0x08,0x20,0x01,0x00,0x00,0x00,
 0x10,0x00,0x00,0xf0,0xff,0xff,0xff,0x07,0xfc,0xff,0xff,0xff,0x01,0xe0,0xff,
 0xff,0xff,0x0f,0xf8,0x3f,0xff,0xff,0xff,0xff,0x0f,0x00,0x00,0x00,0x00,0x00,
 0x00,0x00,0x00,0x00,0x00,0x00,0x00,0x00,0x00,0x00,0x00,0x00,0x00,0x00,0x00,
 0x00,0x00,0x00,0x00,0x00,0x00,0x00,0x00,0x00,0x00,0x00,0x00,0x00,0x00,0x00,
 0x00,0x00,0x00,0x00,0x00,0x00,0x00,0x00,0x00,0x00,0x00,0x00,0x00,0x00,0x00};
