/* XPM */
static char *lucid[] = {
/* width height ncolors chars_per_pixel */
"185 35 3 1",
/* colors */
"  m None	c None",
"- m White	c White",
"# m Black	c Black",
/* pixels */
"                                                                                                                                                                                         ",
"                                                                                                                                                                                         ",
"          ###########                      ###########                   ###########       ###############################       ###########  ####################################       ",
"          #---------#                      #---------#                   #---------#     ##-------------------------------#      #---------#  #-----------------------------------#      ",
"          #---------#                      #---------#                   #---------#    #----------------------------------#     #---------#  #------------------------------------#     ",
"         #---------#                      #---------#                   #---------#    #------------------------------------#   #---------#  #--------------------------------------#    ",
"         #---------#                      #---------#                   #---------#    #------------------------------------#   #---------#  #--------------------------------------#    ",
"         #---------#                      #---------#                   #---------#   #-------------------------------------#   #---------#  #--------------------------------------#    ",
"         #---------#                      #---------#                   #---------#   #-------------------------------------#   #---------#  #--------------------------------------#    ",
"         #---------#                      #--------#                   #----------#  #--------------------------------------#   #---------#  #--------------------------------------#    ",
"        #---------#                      #---------#                   #---------#   #--------------------------------------#  #---------#  #---------------------------------------#    ",
"        #---------#                      #---------#                   #---------#  #---------------------------------------#  #---------#  #---------------------------------------#    ",
"        #---------#                      #---------#                   #---------#  #----------###################----------#  #---------#  #---------####################----------#    ",
"        #---------#                      #--------#                   #----------#  #---------#                  #----------#  #---------#  #---------#                   #---------#    ",
"        #---------#                      #--------#                   #----------#  #--------#                   ############  #---------#  #---------#                   #---------#    ",
"       #---------#                      #---------#                   #---------#  #---------#                                #---------#  #---------#                    #--------#     ",
"       #---------#                      #---------#                   #---------#  #---------#                                #---------#  #---------#                    #--------#     ",
"       #---------#                      #--------#                   #----------#  #--------#                                 #---------#  #---------#                   #---------#     ",
"       #---------#                      #--------#                   #----------#  #--------#                                 #---------#  #---------#                   #---------#     ",
"       #---------#                      #--------#                   #----------#  #--------#                   ############  #---------#  #---------#                   #---------#     ",
"      #---------#                      #---------#                   #---------#  #---------#                   #----------# #---------#  #---------#                   #---------#      ",
"      #---------#                      #----------#                 #----------#  #----------#                 #----------#  #---------#  #---------#                   #---------#      ",
"      #---------#####################  #----------###################----------#  #----------###################----------#  #---------#  #---------####################----------#      ",
"      #-----------------------------#  #---------------------------------------#  #---------------------------------------#  #---------#  #---------------------------------------#      ",
"      #-----------------------------#  #--------------------------------------#   #--------------------------------------#   #---------#  #--------------------------------------#       ",
"     #-----------------------------#   #--------------------------------------#   #--------------------------------------#  #---------#  #---------------------------------------#       ",
"     #-----------------------------#   #-------------------------------------#    #-------------------------------------#   #---------#  #--------------------------------------#        ",
"     #-----------------------------#   #-------------------------------------#    #-------------------------------------#   #---------#  #--------------------------------------#        ",
"     #-----------------------------#   #------------------------------------#     #------------------------------------#    #---------#  #-------------------------------------#         ",
"     #-----------------------------#   #------------------------------------#     #------------------------------------#    #---------#  #-------------------------------------#         ",
"    #-----------------------------#     #---------------------------------##       #---------------------------------##    #---------#  #------------------------------------##          ",
"    #-----------------------------#      #-------------------------------#          #-------------------------------#      #---------#  #-----------------------------------#            ",
"    ###############################       ###############################            ###############################       ###########  ####################################             ",
"                                                                                                                                                                                         ",
"                                                                                                                                                                                         "
};
