#define sbrowse-arrow_width 16
#define sbrowse-arrow_height 16
static char sbrowse-arrow_bits[] = {
   0x00, 0x00, 0x00, 0x00, 0x01, 0x00, 0x03, 0x00, 0x07, 0x00, 0x0f, 0x00,
   0x1f, 0x00, 0x3f, 0x00, 0x1f, 0x00, 0x0f, 0x00, 0x07, 0x00, 0x03, 0x00,
   0x01, 0x00, 0x00, 0x00, 0x00, 0x00, 0x00, 0x00};
