#define arrow_width 16
#define arrow_height 16
#define arrow_x_hot -1
#define arrow_y_hot -1
static char arrow_bits[] = {
   0x00, 0x00, 0x00, 0x00, 0x00, 0x00, 0x80, 0x00, 0x80, 0x01, 0x80, 0x03,
   0xff, 0x07, 0xff, 0x0f, 0xff, 0x0f, 0xff, 0x07, 0x80, 0x03, 0x80, 0x01,
   0x80, 0x00, 0x00, 0x00, 0x00, 0x00, 0x00, 0x00};
